<svg xmlns="http://www.w3.org/2000/svg" xmlns:xlink="http://www.w3.org/1999/xlink" width="455" height="326" viewBox="0 0 455 326">
    <defs>
        <path id="prefix__a" d="M0.055 0.42L455 0.42 455 1.33 0.055 1.33z"/>
        <path id="prefix__c" d="M0.031 0.003L2.042 0.003 2.042 5.791 0.031 5.791z"/>
    </defs>
    <g fill="none" fill-rule="evenodd">
        <g transform="translate(0 283.92)">
            <mask id="prefix__b" fill="#fff">
                <use xlink:href="#prefix__a"/>
            </mask>
            <path fill="#E4E4DE" d="M0.055 0.989L455 0.989 455 0.762 0.055 0.762z" mask="url(#prefix__b)"/>
        </g>
        <path fill="#E4E4DE" d="M361.118 299.557L409.41 299.557 409.41 299.329 361.118 299.329zM248.026 296.705L301.41 296.705 301.41 296.477 248.026 296.477zM345.977 295.391L363.443 295.391 363.443 295.163 345.977 295.163zM91.431 292.635L130.737 292.635 130.737 292.408 91.431 292.408zM72.308 292.635L86.362 292.635 86.362 292.408 72.308 292.408zM119.64 296.477L168.957 296.477 168.957 296.25 119.64 296.25z"/>
        <path fill="#D4EBFF" d="M339.226 189.476c-23.277-30.177-34.051-59.756-62.35-16.227-12.734-13.453-23.927-26.914-32.074-39.605-44.089-68.68-88.418-26.415-124.414 20.252C84.392 200.563 42.77 284.677 42.77 284.677h374.71s-54.834-64.841-78.253-95.201" opacity=".37"/>
        <path fill="#82CCFF" d="M259.325 213.719c-12.063-22.629-17.603-44.83-32.376-11.528-14.05 31.674-50.087 82.486-50.087 82.486H299.63s-28.243-48.33-40.305-70.958" opacity=".223"/>
        <path fill="#D4EBFF" d="M60.217 18.103c1.164.041 2.018.325 2.526.778 5.563-2.703 12.016-4.365 17.406-4.18 2.74.088 4.891.646 6.398 1.556 5.923-4.081 13.563-6.974 19.187-6.974 3.196 0 5.22.936 5.987 2.498 6.135-2.74 12.48-4.423 17.651-4.423 8.245 0 11.09 4.276 7.953 10.281 3.89.108 7.163 2.478 4.37 4.608H50.633c.11-.131.22-.263.344-.4 2.002-2.172 6.135-3.85 9.24-3.744M154.26 44.6c.685.026 1.17.233 1.446.566 3.372-1.97 7.214-3.178 10.353-3.045 1.602.066 2.835.475 3.671 1.137h.004c3.634-2.968 8.227-5.072 11.517-5.072 1.872 0 3.014.681 3.39 1.817 3.705-1.996 7.487-3.22 10.513-3.22 3.751 0 5.482 1.882 5.078 4.777 1.774-.842 3.529-1.339 4.974-1.339 2.003 0 2.978.952 2.875 2.444.176 0 .352.008.523.023 3.067.249 4.314 2.176 2.93 4.379h-62.623c1.315-1.454 3.633-2.54 5.35-2.467M71.094 72.79c.473.018.81.161 1 .391 2.331-1.362 4.988-2.197 7.159-2.105 1.107.045 1.96.328 2.538.786h.003c2.512-2.052 5.687-3.506 7.963-3.506 1.295 0 2.084.47 2.344 1.255 2.56-1.38 5.176-2.226 7.268-2.226 2.595 0 3.79 1.3 3.512 3.303 1.227-.583 2.44-.926 3.439-.926 1.385 0 2.06.658 1.988 1.69.122 0 .242.005.361.016 2.12.172 2.983 1.504 2.027 3.027h-43.3c.909-1.004 2.511-1.755 3.698-1.705" opacity=".37"/>
        <path fill="#FCBB30" d="M394.665 32.4c0 17.534-14.214 31.75-31.748 31.75-17.535 0-31.749-14.216-31.749-31.75S345.382.653 362.918.653c17.533 0 31.747 14.214 31.747 31.749" opacity=".148"/>
        <path fill="#D4EBFF" d="M285.423 31.474c1.164.043 2.018.327 2.526.78 5.561-2.704 12.016-4.366 17.406-4.182 2.74.09 4.891.647 6.4 1.557 5.921-4.082 13.56-6.975 19.185-6.975 3.196 0 5.219.937 5.986 2.5 6.135-2.74 12.481-4.424 17.651-4.424 8.245 0 11.091 4.276 7.954 10.281 3.89.108 7.164 2.479 4.37 4.607h-91.062c.11-.13.22-.263.345-.4 2-2.171 6.133-3.848 9.24-3.744" opacity=".37"/>
        <g fill="#D4EBFF" opacity=".37">
            <path d="M295.144 8.701c.684.028 1.17.234 1.446.566 3.371-1.969 7.214-3.177 10.353-3.044 1.603.066 2.836.475 3.67 1.136h.005c3.633-2.967 8.226-5.07 11.517-5.07 1.872 0 3.014.68 3.39 1.816 3.705-1.997 7.488-3.22 10.513-3.22 3.751 0 5.481 1.881 5.078 4.777 1.775-.842 3.528-1.34 4.973-1.34 2.004 0 2.98.953 2.877 2.445.176 0 .35.007.522.023 3.067.248 4.314 2.175 2.93 4.378h-62.623c1.314-1.453 3.633-2.54 5.349-2.467M352.98 241.765c0 5.691-78.995 10.305-176.44 10.305S.101 247.456.101 241.765c0-5.69 78.994-10.304 176.439-10.304s176.44 4.614 176.44 10.304" transform="translate(50.96 73.71)"/>
        </g>
        <path fill="#3769A4" d="M357.581 203.063L355.414 195.999 356.284 195.733 358.451 202.796 357.581 203.063M353.494 189.738L347.048 168.722 347.918 168.456 354.364 189.471 353.494 189.738"/>
        <path fill="#82CCFF" d="M317.602 80.475h-32.383l-67.47 219.977c-2.26 7.368 3.25 14.822 10.958 14.822h145.407c7.707 0 13.217-7.454 10.957-14.822l-67.47-219.977"/>
        <path fill="#0071CE" d="M333.161 315.274L280.887 315.274 296.14 140.76 299.701 135.736 308.871 151.813 315.531 136.521 333.161 315.274"/>
        <g>
            <path fill="#78BAE8" d="M67.149 19.617c-12.727 0-25.317-1.936-37.505-5.772-1.087-.342-1.692-1.502-1.349-2.59.342-1.09 1.501-1.693 2.588-1.35 13.534 4.26 27.583 6.094 41.75 5.457 1.128-.051 2.102.832 2.154 1.97.051 1.14-.831 2.106-1.97 2.156-1.89.085-3.782.129-5.668.129M85.264 18.39c-.952 0-1.773-.868-1.88-2.039-.116-1.26.632-2.393 1.673-2.534l2.34-.315c1.048-.147 1.978.767 2.093 2.025.116 1.26-.633 2.394-1.672 2.534l-2.34.314c-.073.01-.143.016-.214.016" transform="rotate(110 102.536 132.066)"/>
            <path fill="#EB158C" d="M.056 4.226c.295 1.879 2.211 3.339 4.08 3.106C6.002 7.099 7.51 5.21 7.343 3.315 6.9-1.686-.723-.742.056 4.225" transform="rotate(110 102.536 132.066)"/>
        </g>
        <g>
            <path fill="#78BAE8" d="M4.297 87.06c-1.01-.106-1.821-.932-1.873-1.973-.484-9.77-.095-19.642 1.155-29.34.147-1.142 1.2-1.906 2.346-1.801 1.147.148 1.959 1.194 1.811 2.336C6.517 65.737 6.138 75.36 6.61 84.885c.057 1.15-.834 2.129-1.989 2.185-.11.005-.218.001-.324-.01" transform="rotate(148 177.546 202.377)"/>
            <path fill="#FFC220" d="M11.96 19.74c.328 2.42 1.257 4.957 3.327 6.285 2.362 1.515 5.525 1.022 8.085-.135 6.427-2.902 10.756-9.845 10.494-16.83-.28-7.433-8.914-11.691-14.954-7.261-5.151 3.776-7.785 11.789-6.952 17.94" transform="rotate(148 177.546 202.377)"/>
            <path fill="#78BAE8" d="M6.925 40.067c3.148 3.467 8.555.836 9.558-2.93 1.134-4.255-2.048-9.057-7.074-7.363-3.63 1.224-4.918 7.613-2.484 10.293" transform="rotate(148 177.546 202.377)"/>
        </g>
        <path fill="#0064B7" d="M374.114 315.274H333.16l-17.63-178.753 3.413-7.837 10.63 10.086 2.507-11.086 52.99 172.768c.349 1.137.512 2.276.511 3.389-.003 6.102-4.95 11.433-11.468 11.433"/>
        <path fill="#BBE3FF" d="M237.207 315.274h-8.5c-6.519 0-11.465-5.33-11.47-11.433 0-1.113.164-2.252.512-3.389l53.063-173.005 2.166 14.002 8.101-10.738-43.872 184.563"/>
        <path fill="#3769A4" d="M301.156 71.733c9.716 0 18.222 6.52 20.746 15.902l10.45 38.85-2.778 12.285-10.63-10.086-10.073 23.129-9.17-16.077-11.394 16.077-4.955-24.115-10.374 13.75-2.456-15.873 9.847-37.778c2.466-9.461 11.01-16.064 20.787-16.064"/>
        <path fill="#B0C9DF" d="M308.871 151.813l-9.17-16.077-11.394 16.077-4.955-24.115-10.374 13.75-2.456-15.873 9.847-37.778c2.466-9.461 11.01-16.064 20.787-16.064 9.716 0 18.222 6.52 20.746 15.902l10.45 38.85-.271 1.199-2.507 11.086-10.63-10.086-10.073 23.129"/>
        <path fill="#FFFFFE" d="M280.887 316.184c-.344 0-.673-.196-.826-.529l-15.421-33.432c-.164-.356-.082-.777.204-1.045l60.034-56.255-37.3-72.695c-.09-.174-.12-.373-.088-.566l13.05-77.654c.083-.495.553-.831 1.049-.746.495.083.83.553.746 1.049l-13 77.355 37.475 73.037c.186.36.11.801-.187 1.079l-60.055 56.275 15.144 32.837c.211.456.012.996-.444 1.207-.123.057-.253.083-.381.083"/>
        <path fill="#76C043" d="M335.252 225.119c0 5.11-4.142 9.251-9.252 9.251-5.109 0-9.25-4.142-9.25-9.251 0-5.11 4.141-9.252 9.25-9.252 5.11 0 9.252 4.142 9.252 9.252"/>
        <path fill="#FFFFFE" d="M326 216.777c-4.599 0-8.34 3.742-8.34 8.342 0 4.599 3.741 8.341 8.34 8.341 4.6 0 8.342-3.742 8.342-8.341 0-4.6-3.742-8.342-8.342-8.342zm0 18.504c-5.603 0-10.16-4.56-10.16-10.162 0-5.603 4.557-10.162 10.16-10.162s10.162 4.559 10.162 10.162c0 5.602-4.559 10.161-10.162 10.161z"/>
        <path fill="#76C043" d="M274.718 281.842c0 5.11-4.142 9.252-9.251 9.252-5.11 0-9.252-4.143-9.252-9.252 0-5.11 4.141-9.251 9.252-9.251 5.109 0 9.251 4.14 9.251 9.25"/>
        <path fill="#FFFFFE" d="M265.466 273.5c-4.599 0-8.341 3.742-8.341 8.342 0 4.599 3.742 8.342 8.341 8.342 4.6 0 8.342-3.743 8.342-8.342 0-4.6-3.743-8.341-8.342-8.341zm0 18.504c-5.604 0-10.161-4.56-10.161-10.162 0-5.603 4.557-10.161 10.161-10.161 5.604 0 10.162 4.558 10.162 10.16 0 5.603-4.558 10.163-10.162 10.163z"/>
        <path fill="#76C043" d="M297.64 151.813c0 5.11-4.143 9.252-9.253 9.252s-9.252-4.143-9.252-9.252c0-5.11 4.143-9.251 9.252-9.251 5.11 0 9.252 4.14 9.252 9.25"/>
        <path fill="#FFFFFE" d="M288.387 143.472c-4.6 0-8.342 3.741-8.342 8.34 0 4.6 3.742 8.343 8.342 8.343 4.6 0 8.342-3.742 8.342-8.342 0-4.6-3.742-8.341-8.342-8.341zm0 18.503c-5.603 0-10.162-4.559-10.162-10.162 0-5.603 4.56-10.161 10.162-10.161 5.603 0 10.162 4.558 10.162 10.16 0 5.604-4.559 10.163-10.162 10.163z"/>
        <path fill="#76C043" d="M310.69 74.16c0 5.11-4.143 9.252-9.252 9.252-5.11 0-9.252-4.143-9.252-9.252 0-5.11 4.142-9.252 9.252-9.252s9.251 4.142 9.251 9.252"/>
        <path fill="#FFFFFE" d="M301.438 65.818c-4.6 0-8.342 3.741-8.342 8.342 0 4.599 3.741 8.342 8.341 8.342s8.342-3.743 8.342-8.342c0-4.6-3.741-8.342-8.341-8.342zm0 18.504c-5.603 0-10.162-4.56-10.162-10.162 0-5.604 4.559-10.162 10.161-10.162 5.603 0 10.162 4.558 10.162 10.162 0 5.602-4.559 10.162-10.161 10.162z"/>
        <path fill="#3769A4" d="M301.411 74.21c-.503 0-.91-.407-.91-.91V32.4c0-.502.407-.91.91-.91.502 0 .91.408.91.91v40.9c0 .503-.408.91-.91.91"/>
        <path fill="#FCBB30" d="M245.901 58.584c6.217 2.12 12.435 1.06 18.654 0 6.218-1.06 12.438-2.121 18.656 0V37.373c-6.218-2.122-12.437-1.061-18.655 0-6.218 1.059-12.437 2.12-18.655 0v21.211"/>
        <path fill="#FCBB30" d="M289.18 49.415c-1.727-.59-3.455-.805-5.182-.805-.321 0-.642.008-.963.021.324-.013.647-.022.971-.022 1.724 0 3.448.216 5.171.804V35.618h.003v13.797M273.646 36.03v-.002c.88-.118 1.76-.261 2.64-.41h.016c-.885.15-1.77.294-2.656.412"/>
        <path fill="#BABBB7" d="M289.18 35.618h-.003v-.108c-1.723-.588-3.447-.803-5.17-.803-2.355 0-4.709.402-7.063.803l-.642.108h-.016c2.573-.434 5.144-.912 7.716-.912 1.726 0 3.452.215 5.178.804v.108"/>
        <path fill="#EBA106" d="M259.551 59.808V38.205c1.349-.182 2.698-.407 4.047-.64l.977-.17c3.586-.623 7.173-1.247 10.76-1.247 2.625 0 5.25.334 7.876 1.248v21.617c-2.626-.914-5.251-1.25-7.877-1.25-.493 0-.987.013-1.48.034-4.768.211-9.535 1.368-14.303 2.01"/>
        <path fill="#FCBB30" d="M264.101 54.033c12.436 4.242 24.873-4.241 37.31 0v-21.21c-12.437-4.243-24.872 4.242-37.31 0v21.21"/>
        <g>
            <path fill="#FFF" d="M7.377 5.662c.361 0 .659-.204.699-.47l.357-4.4C8.433.357 7.966 0 7.378 0c-.587 0-1.053.357-1.053.792l.356 4.4c.04.266.337.47.697.47zM5.445 5.877l-3.872-2.27c-.402-.194-1.006.04-1.349.536-.344.496-.283 1.05.12 1.245L4.63 7.056c.269.083.634-.077.844-.381.21-.303.194-.646-.029-.798zM9.986 6.675c.211.304.575.464.843.38l4.288-1.667c.404-.195.462-.749.12-1.245-.343-.496-.948-.73-1.35-.536l-3.872 2.27c-.222.152-.238.495-.027.8l-.002-.002z" transform="translate(276.64 34.58)"/>
            <g transform="translate(276.64 34.58) translate(6.325 10.617)">
                <mask id="prefix__d" fill="#fff">
                    <use xlink:href="#prefix__c"/>
                </mask>
                <path fill="#FFF" d="M1.035.003c.344 0 .628.208.666.479l.341 4.499c0 .445-.446.81-1.006.81S.03 5.426.03 4.981L.37.48c.037-.27.322-.478.665-.478h-.001z" mask="url(#prefix__d)"/>
            </g>
            <path fill="#FFF" d="M9.986 9.603c.211-.305.575-.464.843-.38l4.288 1.667c.404.195.462.75.12 1.246-.343.495-.948.73-1.35.536l-3.872-2.268c-.222-.154-.238-.497-.027-.801h-.002zM5.473 9.603c.211.304.195.647-.028.801l-3.872 2.268c-.402.194-1.006-.041-1.349-.536-.344-.496-.283-1.05.12-1.246L4.63 9.224c.269-.085.634.074.844.38l-.001-.001zM15.338 13.417h.09c.1 0 .186-.031.186-.12 0-.07-.043-.12-.173-.12-.051 0-.082.005-.103.01v.23zm0 .415h-.134v-.738c.073-.013.15-.022.25-.022.122 0 .182.022.23.057.043.031.073.089.073.155 0 .093-.065.15-.143.177v.009c.065.026.1.084.122.177.02.115.034.159.051.185h-.138c-.022-.026-.039-.092-.056-.194-.017-.08-.065-.115-.169-.115h-.086v.31zm.12-.968c-.31 0-.548.26-.548.579 0 .328.238.584.557.584.312.005.541-.256.541-.58 0-.322-.229-.583-.545-.583h-.004zm.01-.124c.389 0 .696.31.696.703 0 .403-.307.713-.7.713-.394 0-.706-.31-.706-.713 0-.393.312-.703.705-.703h.004z" transform="translate(276.64 34.58)"/>
        </g>
        <path fill="#BEBFBB" d="M168.016 301.152h-.003l.022-4.675h.004l-.023 4.675m.024-4.902h-.004l.014-3.078h.005l-.015 3.078"/>
        <path fill="#ACAEAB" d="M168.037 296.477L168.033 296.477 168.034 296.25 168.038 296.25 168.037 296.477"/>
        <path fill="#BEBFBB" d="M123.723 295.149L123.717 295.148 124.29 293.517 124.294 293.518 123.723 295.149"/>
        <path fill="#B5B7B3" d="M157.3 208.064l-.001-.013c.769-4.41 1.64-10.323 2.528-16.85-.888 6.534-1.76 12.453-2.527 16.863"/>
    </g>
</svg>
