<?xml version="1.0" encoding="UTF-8"?>
<svg width="246px" height="181px" viewBox="0 0 246 181" version="1.1" xmlns="http://www.w3.org/2000/svg" xmlns:xlink="http://www.w3.org/1999/xlink">
    <!-- Generator: Sketch 55 (78076) - https://sketchapp.com -->
    <title>Group 118</title>
    <desc>Created with Sketch.</desc>
    <defs>
        <polygon id="path-1" points="0.949 0.597 38.4435475 0.597 38.4435475 86.4547 0.949 86.4547"></polygon>
        <polygon id="path-3" points="0.393558683 0.290331141 9.85982737 0.290331141 9.85982737 23 0.393558683 23"></polygon>
    </defs>
    <g id="Exception-screens" stroke="none" stroke-width="1" fill="none" fill-rule="evenodd">
        <g id="06_404-page-not-found" transform="translate(-517.000000, -235.000000)">
            <g id="Group-118" transform="translate(517.000000, 234.000000)">
                <g id="Group-109" transform="translate(0.000000, 0.403000)">
                    <path d="M126.1658,14.2563 C126.1658,14.2563 139.8708,-2.2797 166.1488,8.2573 C192.4278,18.7953 218.1458,62.0623 194.2428,114.4063" id="Stroke-1" stroke="#004C91" stroke-width="0.782"></path>
                    <path d="M128.8367,25.7836 C127.6347,28.8726 115.6887,24.2236 116.8897,21.1346 L118.5637,16.8336 C119.8477,13.5336 123.5627,11.9006 126.8607,13.1836 C130.1607,14.4686 131.7947,18.1826 130.5107,21.4826 L128.8367,25.7836 Z" id="Fill-3" fill="#DD1385"></path>
                    <path d="M117.106827,21.1803762 C115.743827,24.2013762 127.851827,28.9183762 129.053827,25.8293762 C129.966827,23.4443762 118.088827,19.0043762 117.106827,21.1803762" id="Fill-1" fill="#017ACD"></path>
                    <path d="M121.6072,23.4535 C121.4762,23.8395 120.9052,23.9955 120.3302,23.8005 C119.7542,23.6065 119.3942,23.1365 119.5242,22.7505 C119.6542,22.3645 120.2262,22.2085 120.8012,22.4035 C121.3772,22.5975 121.7372,23.0675 121.6072,23.4535" id="Fill-5" fill="#004C91"></path>
                    <path d="M125.8474,25.019 C125.7164,25.405 125.1454,25.56 124.5704,25.366 C123.9944,25.172 123.6334,24.701 123.7644,24.315 C123.8944,23.929 124.4664,23.774 125.0414,23.968 C125.6174,24.163 125.9774,24.633 125.8474,25.019" id="Fill-7" fill="#004C91"></path>
                    <path d="M192.3347,175.9511 C192.3347,175.9511 187.1687,174.5281 183.7997,169.8031 C180.4307,165.0771 182.2277,153.7901 188.0667,150.5611 C193.9057,147.3341 198.3977,143.5151 197.4997,134.7561 C196.6017,125.9961 199.5217,119.0341 206.9337,118.1361 C214.3457,117.2371 217.2657,117.1271 224.6777,110.4441 C232.0897,103.7611 238.1527,102.7031 241.0727,106.4881 C243.9927,110.2741 241.7467,115.3891 240.1747,119.9071 C238.6027,124.4241 244.2177,129.0341 245.3407,133.5801 C246.4637,138.1251 245.5647,143.9891 239.7257,147.2341 C233.8857,150.4781 229.8437,153.0771 230.5177,158.9651 C231.1907,164.8521 227.8217,173.7981 215.2437,175.9511 L192.3347,175.9511 Z" id="Fill-9" fill="#367C2B"></path>
                    <path d="M231.6404,115.9423 C231.6404,115.9423 204.2804,137.4123 199.4304,175.9513" id="Stroke-11" stroke="#8CD181" stroke-width="1.575" stroke-linecap="round"></path>
                    <path d="M166.7292,99.9296 C162.4182,102.6386 162.6862,107.3346 162.9112,113.2966 C163.1352,119.2586 161.4262,121.4256 158.0132,125.3956 C154.6012,129.3656 156.4412,135.4296 162.3722,138.1246 C168.3012,140.8206 173.4672,144.9856 170.3232,151.9996 C167.1782,159.0136 168.3012,171.7766 183.7992,175.9506 L203.7272,175.9956 C203.7272,175.9956 217.7142,167.8516 219.5112,152.9886 C221.3082,138.1246 209.4042,136.8126 206.0352,131.8536 C202.6662,126.8946 203.6672,120.1376 203.7272,113.2966 C203.7892,106.4556 198.6232,102.9926 191.6612,103.3766 C184.6982,103.7606 181.9792,103.3686 178.3852,100.9096 C174.7922,98.4516 170.3232,97.6716 166.7292,99.9296" id="Fill-13" fill="#76C043"></path>
                    <path d="M173.6589,108.7519 C173.7009,108.9499 197.8969,125.3929 196.7109,175.8749" id="Stroke-15" stroke="#8CD181" stroke-width="1.575" stroke-linecap="round"></path>
                    <path d="M22.5915,162.3193 C25.9595,165.0333 35.5775,175.9223 72.3175,175.9223 C82.5645,175.9223 93.6335,176.3503 102.6235,173.9103 C125.8655,167.5993 141.0805,159.1473 141.0805,159.1473 L96.1285,143.8503 L55.8295,144.0803 L22.5915,162.3193 Z" id="Fill-17" fill="#004C91"></path>
                    <polygon id="Fill-19" fill="#FF9A8D" points="53.5173 155.9013 35.9393 159.2493 36.5753 168.8213 56.2773 168.3363"></polygon>
                    <path d="M53.5173,155.9013 C53.5173,155.9013 96.1283,143.8503 109.3783,140.4833 C124.5493,136.6273 147.5643,126.1613 155.3233,135.8623 C163.0813,145.5623 153.6173,158.4833 132.6293,164.1483 C111.6413,169.8123 54.2083,169.2553 54.2083,169.2553 L53.5173,155.9013 Z" id="Fill-21" fill="#004C91"></path>
                    <path d="M19.4011,153.3945 C19.4011,153.3945 18.7121,155.5945 18.8221,160.2555 C18.9311,164.9175 21.2921,168.4545 21.5331,175.2535 C21.5331,175.2535 24.1731,170.9115 24.0461,163.8645 C23.9181,156.8175 19.4011,153.3945 19.4011,153.3945" id="Fill-23" fill="#BBC5D4"></path>
                    <path d="M44.8913,169.0351 C42.1383,169.3291 37.5363,171.4771 34.7123,172.9731 C31.8883,174.4681 30.3813,176.0321 25.3443,175.9961 C25.3443,175.9961 25.3243,162.6791 24.7853,158.5591 C24.2453,154.4401 23.4133,153.7341 23.4133,153.7341 C23.4133,153.7341 28.0793,154.0311 30.4003,155.2751 C32.7203,156.5181 32.9803,157.0881 37.0753,157.2471 C41.1683,157.4071 42.8433,157.6271 44.6293,157.5941 C47.3453,161.8411 46.2643,166.9991 44.8913,169.0351" id="Fill-25" fill="#002C54"></path>
                    <path d="M32.9763,170.6093 C32.9763,170.6093 34.5393,163.6943 32.2493,158.9643" id="Stroke-27" stroke="#E1EDF9" stroke-width="0.924" stroke-linecap="round"></path>
                    <path d="M35.865,169.8027 C35.865,169.8027 37.382,164.5477 35.154,159.5157" id="Stroke-29" stroke="#E1EDF9" stroke-width="0.924" stroke-linecap="round"></path>
                    <path d="M39.114,168.4989 C39.114,168.4989 40.487,164.9859 38.663,159.7969" id="Stroke-31" stroke="#E1EDF9" stroke-width="0.924" stroke-linecap="round"></path>
                    <path d="M25.3445,175.996 C23.7495,175.967 21.8025,175.921 21.5325,175.254 C21.2625,174.586 23.1265,170.611 22.3845,162.735 C21.9865,158.503 19.0185,153.535 19.4015,153.394 C19.7835,153.255 22.1155,152.381 23.4135,153.734 C24.7125,155.087 31.2935,163.726 25.3445,175.996" id="Fill-33" fill="#E1EDF9"></path>
                    <g id="Group-37" transform="translate(130.000000, 0.000000)">
                        <mask id="mask-2" fill="white">
                            <use xlink:href="#path-1"></use>
                        </mask>
                        <g id="Clip-36"></g>
                        <path d="M0.949,67.8617 C6.49,63.9417 18.433,54.8207 24.716,35.2357 C26.71,29.0197 26.887,24.7567 26.834,21.9037 C23.595,19.1737 23.934,14.0167 20.978,10.8147 C16.822,6.3117 13.098,0.5967 21.227,0.5967 C25.761,0.5967 29.931,0.7807 32.161,2.9387 C33.93,4.6497 37.272,9.7107 37.886,11.4727 C39.27,15.4567 37.663,20.4737 37.489,26.5347 C37.316,32.5967 33.333,70.5227 4.066,86.4547 L0.949,67.8617 Z" id="Fill-35" fill="#FF9A8D" mask="url(#mask-2)"></path>
                    </g>
                    <path d="M67.5193,53.5771 C67.5193,53.5771 67.3873,58.4311 66.9653,60.4351 C66.5433,62.4401 66.9653,63.4951 60.8463,64.5501 C60.8463,64.5501 63.3323,72.5681 73.9353,73.9401 C84.5403,75.3111 88.8653,66.9761 88.5483,66.9761 C88.2323,66.9761 85.2783,65.7621 84.3293,65.1471 C83.3793,64.5321 84.0813,52.8391 84.0813,52.8391 L67.5193,53.5771 Z" id="Fill-38" fill="#FF9A8D"></path>
                    <path d="M83.9382,55.7983 C83.9382,55.7983 82.6422,59.9073 76.2072,60.3293 C69.7702,60.7523 67.3732,56.6943 67.3732,56.6943 L67.5192,53.5773 L84.0812,52.8393 L83.9382,55.7983 Z" id="Fill-40" fill="#BA5964"></path>
                    <path d="M57.3982,35.9574 C57.3982,35.9574 54.0722,35.4364 52.6102,37.8834 C51.1482,40.3304 52.9752,44.9024 56.4382,45.6644 C59.7562,46.3954 60.8462,44.5344 60.8462,44.5344 L57.3982,35.9574 Z" id="Fill-42" fill="#FF9A8D"></path>
                    <path d="M54.491,38.4003 C55.254,38.0043 56.462,37.8853 57.21,38.3403 C57.487,38.5093 57.113,38.9813 56.861,38.9233 C55.434,38.6023 53.762,38.7543 53.304,40.4353 C53.28,40.5243 53.208,40.4433 53.212,40.3853 C53.267,39.4843 53.677,38.8223 54.491,38.4003" id="Fill-44" fill="#BA5964"></path>
                    <path d="M55.1423,38.4413 C55.2833,38.3493 55.6773,38.6793 55.6603,38.7883 C55.4533,38.9213 55.1333,39.2213 55.0053,39.5403 C54.7863,40.0883 54.7623,40.5393 54.8903,41.1223 C55.1823,42.4623 56.0743,43.3333 57.4373,43.4633 C57.4623,43.4653 57.5113,43.5283 57.4733,43.5443 C56.3603,43.9853 54.8973,42.9713 54.4943,41.9763 C54.0473,40.8743 53.9083,39.2433 55.1423,38.4413" id="Fill-46" fill="#BA5964"></path>
                    <path d="M89.573,29.7787 C89.573,29.7787 92.473,28.0617 94.738,29.7927 C97.003,31.5247 96.999,36.4477 94.064,38.4387 C91.253,40.3457 89.552,39.0227 89.552,39.0227 L89.573,29.7787 Z" id="Fill-48" fill="#FF9A8D"></path>
                    <path d="M93.1824,30.9701 C92.3284,30.8851 91.1614,31.2221 90.6344,31.9221 C90.4394,32.1811 90.9614,32.4811 91.1754,32.3341 C92.3814,31.5071 93.9924,31.0291 95.0384,32.4201 C95.0944,32.4941 95.1314,32.3931 95.1064,32.3401 C94.7204,31.5241 94.0954,31.0601 93.1824,30.9701" id="Fill-50" fill="#BA5964"></path>
                    <path d="M92.5925,31.2494 C92.4275,31.2164 92.1845,31.6684 92.2395,31.7634 C92.4825,31.8104 92.8895,31.9714 93.1265,32.2204 C93.5335,32.6464 93.7225,33.0574 93.8205,33.6454 C94.0445,34.9994 93.5395,36.1384 92.3215,36.7644 C92.2985,36.7754 92.2775,36.8524 92.3175,36.8524 C93.5155,36.8514 94.4975,35.3664 94.5035,34.2924 C94.5105,33.1044 94.0355,31.5374 92.5925,31.2494" id="Fill-52" fill="#BA5964"></path>
                    <path d="M77.655,13.6572 C75.072,12.7712 72.319,12.4902 69.67,12.9982 C67.019,13.5082 64.411,14.6862 62.341,16.4662 C57.509,20.6192 55.643,27.1872 56.819,33.3442 C56.821,33.3522 56.823,33.3612 56.825,33.3702 C57.161,35.1312 57.601,36.8722 58.142,38.5812 L58.898,40.9712 C59.489,42.8422 60.824,46.4182 62.958,49.6882 C67.191,56.1762 74.064,57.2412 78.02,56.4822 C81.975,55.7222 87.966,52.1862 89.494,44.5922 C90.264,40.7642 90.18,36.9482 90.037,34.9912 L89.853,32.4912 C89.722,30.7042 89.486,28.9242 89.147,27.1632 C89.145,27.1542 89.143,27.1452 89.141,27.1362 C87.954,20.9822 83.681,15.7242 77.655,13.6572" id="Fill-54" fill="#FF9A8D"></path>
                    <path d="M80.4499,25.83 L88.5649,27.368 C88.5649,27.368 87.9879,25.139 85.1019,23.972 C83.8429,23.462 82.4269,23.508 81.5619,23.986 C80.3129,24.677 80.4499,25.83 80.4499,25.83" id="Fill-58" fill="#001C45"></path>
                    <path d="M66.5202,28.3056 L60.5862,34.0506 C60.5862,34.0506 59.8422,31.8706 61.6132,29.3096 C62.3852,28.1916 63.5932,27.4516 64.5792,27.3756 C66.0012,27.2656 66.5202,28.3056 66.5202,28.3056" id="Fill-60" fill="#001C45"></path>
                    <path d="M75.2009,32.7026 C74.4189,32.9106 73.8479,40.9146 74.9319,42.0536 C75.3819,42.5246 76.5049,42.8626 77.1179,42.6866 C77.7529,42.6226 78.6719,41.8926 78.9139,41.2886 C79.4989,39.8296 76.0059,32.6066 75.2009,32.7026" id="Fill-64" fill="#BA5964"></path>
                    <path d="M67.3732,18.6698 C70.7795797,20.597 81.8125,22.3978 81.0955,18.6698 C81.0955,18.6698 84.0812,18.6698 89.5735,29.7788 C89.5735,29.7788 91.2605,25.2838 90.7095,20.2638 C90.1575,15.2438 87.7835,12.7458 85.2175,10.8928 C82.7765,9.1298 80.3955,10.1928 79.4145,10.8288 C78.1275,8.4038 74.3335,3.2708 66.8635,4.1088 C58.5085,5.0448 55.2595,10.8148 56.4775,19.6198 C56.4775,19.6198 53.3405,18.7348 51.4625,22.3768 C49.5845,26.0188 51.6745,33.0908 54.1735,36.4448 C54.1735,36.4448 56.3525,35.7578 57.3985,35.9578 C57.3985,35.9578 55.9315,30.1328 57.3085,25.0248 C58.4285,20.8698 59.3445,20.2768 59.3445,20.2768 C59.3445,20.2768 63.9668203,16.7426 67.3732,18.6698 Z" id="Fill-70" fill="#003C72"></path>
                    <path d="M63.4763,63.9955 C64.2253,67.0165 68.4973,71.8065 74.7053,72.0965 C80.9143,72.3865 86.0413,68.2165 86.8883,66.3805 C92.0723,66.8605 98.6553,68.2665 100.8663,68.6695 C103.9973,69.2385 107.0333,72.0315 105.9143,80.8445 C104.8283,89.4025 98.0383,143.4995 98.0383,143.4995 C98.0383,143.4995 80.0893,150.4645 55.8303,144.0795 C55.8303,144.0795 41.1503,85.3625 39.8433,80.2835 C38.5383,75.2035 36.9413,69.8335 41.5853,68.2375 C46.2293,66.6405 63.4763,63.9955 63.4763,63.9955" id="Fill-72" fill="#E1EDF9"></path>
                    <path d="M83.5115,126.4628 C83.8545,126.5288 84.1985,126.5808 84.5465,126.6168 C87.9665,126.9748 86.4105,123.1098 85.3365,121.5878 C83.6955,119.2618 72.3175,110.4438 72.3175,110.4438 L63.4765,111.1898 L53.5175,115.2938 L49.4245,118.4718 C50.2515,121.7768 51.0545,124.9858 51.7965,127.9528 C55.5195,125.6198 64.5225,120.0928 66.5205,119.9068 C67.7695,119.7908 68.8975,120.2228 70.0235,120.7088 C71.6445,121.4078 73.2705,122.0418 74.9285,122.6478 C75.6805,122.9218 76.4345,123.1968 77.1545,123.5458 C78.4565,124.1758 79.6365,125.0388 80.9505,125.6448 C81.7675,126.0198 82.6295,126.2918 83.5115,126.4628" id="Fill-74" fill="#BBC5D4"></path>
                    <path d="M121.7185,107.9521 L128.1615,111.0251" id="Stroke-76" stroke="#004C91" stroke-width="2.1" stroke-linecap="round"></path>
                    <path d="M118.9939,113.2968 L125.4369,116.3698" id="Stroke-78" stroke="#004C91" stroke-width="2.1" stroke-linecap="round"></path>
                    <path d="M29.0417,135.8622 C37.5137,137.0982 52.5277,137.4012 65.7957,125.3952 C76.4797,115.7282 86.2267,97.2712 111.0367,105.3842" id="Stroke-80" stroke="#004C91" stroke-width="0.782"></path>
                    <path d="M122.7126,104.4667 C125.6436,106.0167 119.6476,117.3477 116.7176,115.7977 L112.6376,113.6387 C109.5086,111.9837 108.3146,108.1047 109.9696,104.9757 C111.6256,101.8467 115.5046,100.6527 118.6336,102.3077 L122.7126,104.4667 Z" id="Fill-82" fill="#DD1385"></path>
                    <path d="M35.0232,77.1152 C35.0232,77.1152 14.9502,113.3972 11.3002,119.5152 C7.6502,125.6352 8.4022,132.5052 9.1532,134.2212 C9.9052,135.9392 20.3172,137.1202 29.8712,133.4702 C39.4232,129.8212 64.0222,117.3232 65.8472,116.3572 C65.8472,116.3572 68.1832,117.8962 70.5332,119.0092 C73.8152,120.5642 76.4732,120.6282 78.5992,122.2372 C80.7252,123.8472 83.0602,126.9162 87.1712,124.9322 C89.6182,123.7522 84.1902,116.1372 81.7602,111.9362 C79.3852,109.9032 70.9002,106.3902 66.6472,106.9962 C60.6312,107.8522 30.4212,118.1362 30.4212,118.1362 L41.3682,99.2472 L35.0232,77.1152 Z" id="Fill-84" fill="#FF9A8D"></path>
                    <path d="M42.6247,67.9023 C37.6957,69.4513 35.7967,71.8663 30.9747,80.6333 C26.1517,89.4013 19.7757,100.0693 19.7757,100.0693 C19.7757,100.0693 24.9577,108.1463 36.3807,110.4443 L44.1347,97.3463 L42.6247,67.9023 Z" id="Fill-86" fill="#E1EDF9"></path>
                    <path d="M100.866,68.6694 C106.763,69.6314 121.77,74.0334 130.949,67.8614 C130.949,67.8614 137.01,77.1034 135.97,88.7064 C135.97,88.7064 123.53,99.7974 104.087,95.3474 L100.866,68.6694 Z" id="Fill-88" fill="#E1EDF9"></path>
                    <polygon id="Fill-90" fill="#FF9A8D" points="102.6238 158.6405 119.8788 163.3835 118.4778 172.8735 98.8788 170.8145"></polygon>
                    <path d="M102.6238,158.6405 C102.6238,158.6405 62.9758,144.9655 48.2768,139.5785 C33.5788,134.1935 12.0348,123.4205 3.5248,132.4695 C-4.9852,141.5185 2.1238,154.9945 22.5918,162.3195 C43.0598,169.6445 100.8668,171.8965 100.8668,171.8965 C102.6378,167.5995 103.2098,163.1795 102.6238,158.6405" id="Fill-92" fill="#017ACD"></path>
                    <path d="M136.8318,158.871 C136.8318,158.871 137.3428,161.119 136.8598,165.757 C136.3778,170.395 133.7418,173.731 132.9578,180.489 C132.9578,180.489 130.6728,175.949 131.3648,168.935 C132.0568,161.922 136.8318,158.871 136.8318,158.871" id="Fill-94" fill="#BBC5D4"></path>
                    <path d="M110.1716,172.4218 C112.8926,172.9358 117.3086,175.4448 120.0036,177.1608 C122.6976,178.8768 124.0756,180.5578 129.0996,180.9248 C129.0996,180.9248 130.1856,167.6508 131.0526,163.5888 C131.9186,159.5258 132.8046,158.8888 132.8046,158.8888 C132.8046,158.8888 128.1296,158.8118 125.7176,159.8658 C123.3046,160.9198 123.0006,161.4668 118.9066,161.2978 C114.8136,161.1298 113.1256,161.2148 111.3476,161.0388 C108.3016,165.0548 108.9656,170.2818 110.1716,172.4218" id="Fill-96" fill="#002C54"></path>
                    <path d="M122.305497,174.9452 C122.305497,174.9452 121.300497,167.9262 123.961497,163.3952" id="Stroke-98" stroke="#E1EDF9" stroke-width="0.924" stroke-linecap="round"></path>
                    <path d="M119.1081,173.9101 C119.1081,173.9101 118.0161,168.5511 120.6391,163.7121" id="Stroke-100" stroke="#E1EDF9" stroke-width="0.924" stroke-linecap="round"></path>
                    <path d="M115.9734,172.3495 C115.9734,172.3495 114.8854,168.7395 117.1194,163.7115" id="Stroke-102" stroke="#E1EDF9" stroke-width="0.924" stroke-linecap="round"></path>
                    <g id="Group-106" transform="translate(127.000000, 158.000000)">
                        <mask id="mask-4" fill="white">
                            <use xlink:href="#path-3"></use>
                        </mask>
                        <g id="Clip-105"></g>
                        <path d="M2.0993,22.9247 C3.6903,23.0237 5.6353,23.1327 5.9573,22.4887 C6.2813,21.8467 4.7413,17.7347 6.1103,9.9437 C6.8453,5.7567 10.2023,1.0417 9.8313,0.8707 C9.4613,0.7007 7.2063,-0.3563 5.8043,0.8887 C4.4023,2.1337 -2.8487,10.2177 2.0993,22.9247" id="Fill-104" fill="#E1EDF9" mask="url(#mask-4)"></path>
                    </g>
                    <path d="M102.572,165.7568 L101.68,165.7568 C101.68,165.7568 75.837,164.0788 48.162,159.5158 C20.975,155.0328 2.596,145.8908 0.13,139.1648 C-1.08,147.2988 6.752,156.6508 22.592,162.3188 C43.059,169.6448 100.867,171.8968 100.867,171.8968 C101.611,170.1138 102.207,168.1088 102.572,165.7568" id="Fill-107" fill="#004C91"></path>
                </g>
                <g id="Group-117" transform="translate(44.000000, 77.403000)" fill="#BBC5D4">
                    <path d="M0.1345,20.3466 C0.1345,20.3466 3.2165,12.1726 1.1105,0.1156 C1.1105,0.1156 4.9725,14.8256 0.7815,22.9296 L0.1345,20.3466 Z" id="Fill-113"></path>
                    <path d="M60.0867,18.3476 C60.0867,18.3476 61.2127,9.0526 59.1957,0.3876 C59.1957,0.3876 61.6467,5.3726 61.5187,18.6496 L60.0867,18.3476 Z" id="Fill-115"></path>
                </g>
            </g>
        </g>
    </g>
</svg>