<?xml version="1.0" encoding="UTF-8"?>
<svg width="50px" height="50px" viewBox="0 0 50 50" version="1.1" xmlns="http://www.w3.org/2000/svg" xmlns:xlink="http://www.w3.org/1999/xlink">
    <!-- Generator: Sketch 55 (78076) - https://sketchapp.com -->
    <title>Group</title>
    <desc>Created with Sketch.</desc>
    <g id="HRBP-Screens" stroke="none" stroke-width="1" fill="none" fill-rule="evenodd">
        <g id="03_Templates" transform="translate(-321.000000, -168.000000)">
            <g id="create-new" transform="translate(223.000000, 142.000000)">
                <g id="Group-2" transform="translate(68.000000, 27.000000)">
                    <g id="Group-7">
                        <g id="Group" transform="translate(31.000000, 0.000000)">
                            <path d="M24,48 C37.254834,48 48,37.254834 48,24 C48,10.745166 37.254834,0 24,0 C10.745166,0 0,10.745166 0,24 C0,37.254834 10.745166,48 24,48 Z" id="Oval" stroke="#0696F8" stroke-width="1.5" stroke-dasharray="3"></path>
                            <circle id="Oval-Copy" fill="#0696F8" cx="24" cy="24" r="21"></circle>
                            <g id="baseline-add-24px" transform="translate(15.000000, 15.000000)">
                                <polygon id="Path" fill="#FFFFFF" fill-rule="nonzero" points="14.25 9.75 9.75 9.75 9.75 14.25 8.25 14.25 8.25 9.75 3.75 9.75 3.75 8.25 8.25 8.25 8.25 3.75 9.75 3.75 9.75 8.25 14.25 8.25"></polygon>
                                <polygon id="Path" points="0 0 18 0 18 18 0 18"></polygon>
                            </g>
                        </g>
                    </g>
                </g>
            </g>
        </g>
    </g>
</svg>